<?xml version="1.0" encoding="utf-8"?>
<!-- Generator: Adobe Illustrator 19.1.0, SVG Export Plug-In . SVG Version: 6.00 Build 0)  -->
<!DOCTYPE svg PUBLIC "-//W3C//DTD SVG 1.1//EN" "http://www.w3.org/Graphics/SVG/1.1/DTD/svg11.dtd">
<svg version="1.1" id="Layer_1" xmlns="http://www.w3.org/2000/svg" xmlns:xlink="http://www.w3.org/1999/xlink" x="0px" y="0px"
	 viewBox="0 0 20.6 20.6" style="enable-background:new 0 0 20.6 20.6;" xml:space="preserve">
<style type="text/css">
	.st0{fill:#00A55C;}
	.st1{fill:#FFFFFF;}
</style>
<g>
	<path class="st0" d="M10.3,20.6C4.6,20.6,0,16,0,10.3S4.6,0,10.3,0C16,0,20.6,4.6,20.6,10.3S16,20.6,10.3,20.6"/>
	<path class="st1" d="M6.5,10.5c0-3.3,1.3-5.6,3.9-5.6c1.7,0,2.9,0.9,3.2,2.7l-2.1,0.3c-0.1-0.8-0.6-1.2-1.2-1.2
		c-1.3,0-1.7,1.5-1.7,3c0.4-0.5,1-0.9,2-0.9c2,0,3.1,1.4,3.1,3.4c0,1.9-1.4,3.4-3.5,3.4C7.2,15.6,6.5,12.9,6.5,10.5 M8.8,12.1
		c0,1,0.5,1.6,1.4,1.6c0.9,0,1.4-0.6,1.4-1.6c0-1-0.5-1.6-1.4-1.6C9.3,10.5,8.8,11.1,8.8,12.1z"/>
</g>
</svg>
